<svg xmlns="http://www.w3.org/2000/svg" viewBox="0 0 64 64">
  <!-- Background -->
  <rect width="64" height="64" rx="8" fill="#EDE8DC"/>
  <!-- Teal circle -->
  <circle cx="32" cy="26" r="18" fill="#4A8B8C"/>
  <!-- Left figure silhouette -->
  <g fill="#1C2D3A">
    <ellipse cx="22" cy="17" rx="5.5" ry="6" fill="#EDE8DC"/>
    <path d="M22,13 Q22,9 22,10 Q18,9 17,14 Q17,12 19,14 Z" fill="#1C2D3A"/>
    <path d="M15,25 L18,22 Q21,20 25,22 L29,30 L29,48 L22,48 L21,40 L19,48 L13,48 Z"/>
    <path d="M16,23 L22,21 L22,34 L14,34 Z" fill="#4A8B8C" opacity="0.6"/>
  </g>
  <!-- Right figure silhouette -->
  <g fill="#1C2D3A">
    <ellipse cx="42" cy="17" rx="5.5" ry="6" fill="#EDE8DC"/>
    <path d="M42,13 Q42,9 42,10 Q46,9 47,14 Q47,12 45,14 Z" fill="#1C2D3A"/>
    <circle cx="47" cy="11" r="2.5" fill="#1C2D3A"/>
    <path d="M35,25 L38,22 Q41,20 45,22 L49,30 L49,48 L42,48 L41,40 L39,48 L35,48 Z"/>
    <path d="M48,23 L42,21 L42,34 L50,34 Z" fill="#4A8B8C" opacity="0.6"/>
  </g>
  <!-- Handshake -->
  <path d="M27,32 Q30,29 33,31 Q36,29 37,32 Q37,35 33,35 Q29,35 27,32Z" fill="#EDE8DC" stroke="#D4CEBC" stroke-width="0.5"/>
  <!-- Bottom dots -->
  <circle cx="14" cy="57" r="2.5" fill="#EDE8DC" stroke="#D4CEBC" stroke-width="0.3"/>
  <circle cx="22" cy="57" r="2.5" fill="#A8B5A0"/>
  <circle cx="30" cy="57" r="2" fill="#4A8B8C"/>
  <circle cx="37" cy="57" r="2.5" fill="#2D5A5E"/>
  <circle cx="44" cy="57" r="2" fill="#1C2D3A"/>
  <circle cx="51" cy="57" r="2.5" fill="#111D28"/>
</svg>
